<svg width="155" height="31" viewBox="0 0 155 31" fill="none" xmlns="http://www.w3.org/2000/svg">
<path d="M139.593 13.3V6.98651H137.234V6.14178H142.908V6.98651H140.54V13.3H139.593ZM143.855 13.3V6.14178H145.281L146.976 11.2101C147.132 11.6821 147.246 12.0353 147.317 12.2697C147.399 12.0093 147.526 11.6268 147.698 11.1223L149.412 6.14178H150.687V13.3H149.773V7.30878L147.693 13.3H146.839L144.769 7.20624V13.3H143.855Z" fill="white"/>
<path fill-rule="evenodd" clip-rule="evenodd" d="M129.026 8.73633C127.082 6.97145 125.158 6.07366 122.067 6.07366C118.976 6.07366 117.052 6.97299 115.108 8.73633C113.125 10.4805 112.153 12.794 112.133 15.6224C112.153 18.4501 113.144 20.7636 115.108 22.5078C117.052 24.2726 118.976 25.1704 122.067 25.1704C125.158 25.1704 127.082 24.2711 129.026 22.5078C131.009 20.7636 131.981 18.4501 132 15.6224C131.981 12.794 130.989 10.4813 129.026 8.73633ZM103.745 6.1105H96.1385C95.9558 6.1105 95.799 6.21179 95.799 6.38213V7.14947C95.794 7.22266 95.823 7.29427 95.8783 7.34568C95.9337 7.39709 96.01 7.42322 96.0874 7.41727H101.494V21.7182V21.7182V24.6195C101.494 24.7073 101.53 24.7917 101.596 24.8538C101.662 24.9159 101.751 24.9506 101.844 24.9502H105.643C105.736 24.9506 105.825 24.9159 105.89 24.8537C105.956 24.7916 105.993 24.7072 105.992 24.6195V21.7182V21.7182V7.4142H111.399C111.476 7.42012 111.553 7.39401 111.608 7.34263C111.664 7.29125 111.693 7.21966 111.688 7.1464V6.38367C111.688 6.21332 111.531 6.11203 111.349 6.11203L103.745 6.1105ZM85.4403 6.1105H84.6816C84.5015 6.11529 84.3565 6.25189 84.351 6.42204V20.1021C83.7287 19.1476 79.4909 11.8026 77.8776 9.12153C76.266 6.4957 75.7201 6.12891 73.5853 6.1105H70.3742C70.2378 6.1105 70.1996 6.22023 70.1996 6.36756V6.36756V24.1422C70.198 24.2253 70.2322 24.3055 70.2944 24.3644C70.3566 24.4232 70.4414 24.4557 70.5294 24.4545H71.2491C71.4294 24.4493 71.5742 24.3125 71.5797 24.1422V7.35896C72.046 7.72574 72.2791 8.22221 72.9606 9.32334C76.1287 14.41 79.3365 19.4967 82.4851 24.601L82.5046 24.6195C82.6256 24.7882 82.8159 24.9015 83.0293 24.9318H85.4403C85.5285 24.9332 85.6135 24.9008 85.6758 24.8419C85.7381 24.783 85.7725 24.7027 85.7709 24.6195V6.42204C85.7654 6.25218 85.6209 6.11569 85.4411 6.1105H85.4403ZM66.8593 16.6138H59.4721C59.2917 16.6186 59.1466 16.7557 59.1415 16.9261V17.6052C59.147 17.7755 59.2918 17.9123 59.4721 17.9175H62.602V20.4497C62.602 21.2393 62.5207 22.286 62.2519 22.7449C61.8636 23.4063 60.8709 24.2511 59.0253 24.2511C57.2171 24.2511 56.1091 23.4071 55.2342 22.3781C54.2237 21.2762 53.4073 18.5951 53.4073 15.4551C53.4073 12.2968 54.0677 9.78144 55.2927 8.66113C56.4397 7.55923 57.6062 7.33901 59.2 7.30217C61.338 7.24692 63.1852 8.25674 64.5263 9.76303C64.6815 9.94642 64.8375 9.94642 65.0137 9.83592L65.1307 9.70778L65.5775 9.24738V9.24738C65.714 9.13688 65.753 8.91665 65.636 8.80616C63.7685 7.00982 61.338 6 58.6387 6C55.6063 6 53.2148 6.97299 51.409 8.99262C49.6593 10.9754 48.7649 13.2897 48.7649 15.9148C48.7649 18.5959 49.6983 20.7997 51.5642 22.5622C53.4114 24.3064 55.763 25.1881 58.5428 25.1881C61.0894 25.1881 63.8302 24.545 65.6774 22.9298C66.7269 22.009 67.1737 20.9278 67.1737 19.8812V16.9653C67.2127 16.7819 67.0575 16.6353 66.8634 16.6169L66.8593 16.6138ZM89.376 15.5303V21.7182V21.7182V24.6195C89.3756 24.7073 89.4123 24.7917 89.4781 24.8538C89.5438 24.9159 89.6331 24.9506 89.7261 24.9502H93.5554C93.6483 24.9506 93.7375 24.9159 93.8031 24.8537C93.8688 24.7916 93.9053 24.7072 93.9047 24.6195V21.7182V21.7182V15.5303H89.376ZM93.9047 15.5303V9.34176V9.34176V6.44045C93.9051 6.35275 93.8685 6.26851 93.8029 6.20642C93.7373 6.14433 93.6482 6.10952 93.5554 6.10973H89.7261C89.6331 6.10932 89.5438 6.14403 89.4781 6.20614C89.4123 6.26825 89.3756 6.35261 89.376 6.44045V9.34176V9.34176V15.5303H93.9047ZM26.7811 21.6997C25.1484 18.0457 23.3401 14.2451 21.7659 10.7007C21.3597 9.80063 20.1526 6.44045 17.4695 6.23864C16.3038 6.14656 15.351 6 13.6207 6.23864C13.6207 6.23864 13.0375 6.33072 12.646 6.58778C12.0106 6.97752 11.5166 7.54138 11.2301 8.2038L10.0831 10.8296C9.09125 12.9413 7.90607 15.5871 7.0507 17.807L6.93373 18.0641H6.95322C6.13684 20.2311 6.01987 21.204 6.00037 22.2323C5.96219 25.1336 8.85811 25.7398 10.3552 24.7115C11.8523 23.6833 11.5412 21.7734 11.1675 20.0108C10.0595 14.7929 10.9149 11.0499 11.0701 10.5173C11.5574 8.84606 12.1196 8.31353 12.3698 8.00122L12.3893 7.98357C13.0302 7.34054 14.1764 6.64303 15.169 7.65285C15.169 7.65285 15.732 8.11325 16.4907 9.63565C16.9781 10.6271 21.817 21.9023 21.817 21.9023C22.6139 23.8115 24.1102 24.9134 25.4725 24.8949H28.4659C28.7185 24.8949 28.8355 24.565 28.6405 24.4177C28.1158 23.9956 27.4553 23.206 26.7722 21.6997H26.7811ZM45.6797 6.1105H44.96C44.78 6.11531 44.6353 6.25201 44.6302 6.42204V16.8893C44.6318 17.9179 44.5407 18.9447 44.3581 19.9587C44.2411 20.5464 43.9495 21.1347 43.4832 21.7235C42.5304 22.9513 41.1697 23.8537 39.576 23.8537C38.1178 23.8537 37.0098 23.5782 36.1545 22.9904C35.3421 22.4218 34.9303 21.7627 34.7735 20.9892C34.6574 20.6055 34.6379 20.0684 34.6184 19.3732C34.5989 18.678 34.5989 17.8124 34.5989 16.841V7.74416C34.5958 6.83297 33.8146 6.09503 32.85 6.09208H30.3033C30.1232 6.09688 29.9782 6.23347 29.9727 6.40362V18.3396C29.9727 19.8819 30.054 21.0943 30.595 22.0305C31.136 22.9666 31.9946 23.7386 33.2577 24.3072C34.5022 24.8949 35.9993 25.1704 37.7482 25.1704C39.2453 25.1704 40.5475 24.9318 41.714 24.4729C42.861 24.0325 43.7732 23.4263 44.4158 22.6551C45.038 21.9207 45.5627 21.1127 45.6992 20.2679C45.9012 19.1148 45.9987 17.9475 45.9908 16.7788V6.40362C46.0103 6.25706 45.8544 6.1105 45.6797 6.1105V6.1105ZM122.067 24.0662C117.246 24.0662 116.663 19.0355 116.663 15.6201C116.663 12.2047 117.246 7.17326 122.067 7.17326C126.888 7.17326 127.471 12.2047 127.471 15.6201C127.471 19.0355 126.868 24.0685 122.067 24.0685V24.0662Z" fill="white"/>
</svg>
